# xmcd
#
# Track frame offsets:
#       150
#       21957
#       42837
#       70330
#       87152
#       109837
#       128490
#       147727
#       174792
#       196545
#       219040
#       243387
#
# Disc length: 3549 seconds
#
# Revision: 0
# Processed by: cddbd v1.5.2PL0 Copyright (c) Steve Scherf et al.
# Submitted via: WaveLab 4.01
#
DISCID=9a0ddb0c
DTITLE=Victoria  Tolstoy - Blame it on my youth
DYEAR=2001
DGENRE=Jazz
TTITLE0=We'll be together again
TTITLE1=Midnight sun
TTITLE2=Laura
TTITLE3=Baby plays around
TTITLE4=Saga of Harrison crabfeathers
TTITLE5=Blame it on my youth
TTITLE6=Destiny
TTITLE7=Peace
TTITLE8=Summer night
TTITLE9=Angel eyes
TTITLE10=The masquerade is over
TTITLE11=Suffering with the blues
EXTD=
EXTT0=
EXTT1=
EXTT2=
EXTT3=
EXTT4=
EXTT5=
EXTT6=
EXTT7=
EXTT8=
EXTT9=
EXTT10=
EXTT11=
PLAYORDER=
